<svg width="339" height="172" viewBox="0 0 339 172" fill="none" xmlns="http://www.w3.org/2000/svg">
<g clip-path="url(#clip0_339_228)">
<path d="M339 136.478L291.236 136.478L255.603 172L229.826 172M75.163 86.9733L103.594 86.9733L128.992 61.6542L212.768 61.6542L240.819 89.6185M339 86.9732L271.524 86.9732L224.898 40.492L125.58 40.492L83.8818 -1.07666L50.5231 -1.07666L-22.6386 71.8574L-52.2065 71.8574L-74.572 49.5615L-131.433 49.5615L-144.322 62.41L-219 62.41M-219 49.5615L-151.145 49.5615L-135.982 34.4456L-92.0095 34.4456M8.82471 -14.303L-22.6386 17.0624L-47.6576 17.0624L-65.0951 34.4456L-92.0095 34.4456M-92.0095 34.4456L-61.6834 4.2139L-41.5924 4.2139L2.75949 -40M-219 34.4457L-171.616 34.4456L-135.982 -1.07665L-108.689 -1.07665M339 72.9911L271.524 72.9911L229.826 31.4224L143.397 31.4224L128.992 17.0624L114.966 17.0624" stroke="#2563EB" stroke-width="2"/>
</g>
<defs>
<clipPath id="clip0_339_228">
<rect width="339" height="172" fill="white"/>
</clipPath>
</defs>
</svg>
