<svg width="119" height="305" viewBox="0 0 119 305" fill="none" xmlns="http://www.w3.org/2000/svg">
<path d="M98.3957 -1L98.3957 25.4497L118 45.1821L118 59.4565M71.0749 145.103L71.0749 129.359L57.1016 115.295L57.1016 68.9029L72.5348 53.3689M71.0749 -1L71.0749 36.3655L45.4225 62.1855L45.4225 117.184L22.4813 140.275L22.4813 158.748L62.7326 199.262L62.7326 215.636L50.4278 228.021L50.4278 259.509L57.5187 266.646L57.5187 308M50.4278 308L50.4278 270.425L42.0856 262.028L42.0856 237.677M15.1818 181.839L32.492 199.262L32.492 213.117L42.0856 222.773L42.0856 237.677M42.0856 237.677L25.4011 220.884L25.4011 209.758L1.00001 185.198M42.0856 308L42.0856 281.76L22.4813 262.028L22.4813 246.914M63.3583 -1L63.3583 36.3655L40.4171 59.4565L40.4171 107.318L32.492 115.295L32.492 123.062" stroke="#D9D9D9" stroke-width="1.5"/>
</svg>
